M48
;GenerationSoftware,Autodesk,EAGLE,9.6.2*%
;CreationDate,2023-07-27T17:48:09Z*%
FMAT,2
ICI,OFF
METRIC,TZ,000.000
T7C0.300
T6C0.305
T5C0.400
T4C0.650
T3C0.950
T2C1.016
T1C3.302
%
G90
M71
T1
X48768Y46228
X86868Y46228
X94996Y40615
X133096Y40615
X94996Y2540
X133096Y2540
X94996Y46228
X133096Y46228
X2540Y84303
X40640Y84303
X2540Y46228
X40640Y46228
X94996Y84303
X133096Y84303
X2540Y40615
X40640Y40615
X2540Y2540
X40640Y2540
X48768Y84303
X86868Y84303
X48768Y40615
X86868Y40615
X48768Y2540
X86868Y2540
T2
X13970Y41910
X129286Y44958
X129286Y1270
X126746Y1270
X124206Y1270
X121666Y1270
X119126Y1270
X116586Y1270
X114046Y1270
X111506Y1270
X108966Y1270
X106426Y1270
X13970Y1270
X116586Y44958
X75438Y1270
X77978Y1270
X80518Y1270
X83058Y1270
X93726Y29210
X108966Y41910
X106426Y41910
X93726Y34290
X93726Y31750
X93726Y21590
X93726Y24130
X93726Y26670
X119126Y44958
X129286Y41910
X126746Y41910
X124206Y41910
X1270Y21590
X1270Y24130
X1270Y26670
X1270Y29210
X1270Y31750
X1270Y34290
X121666Y41910
X16510Y41910
X19050Y41910
X21590Y41910
X24130Y41910
X26670Y41910
X29210Y41910
X31750Y41910
X34290Y41910
X36830Y41910
X121666Y44958
X124206Y44958
X16510Y1270
X19050Y1270
X21590Y1270
X24130Y1270
X26670Y1270
X29210Y1270
X31750Y1270
X34290Y1270
X36830Y1270
X119126Y41910
X116586Y41910
X114046Y41910
X111506Y41910
X47498Y21590
X47498Y24130
X47498Y26670
X47498Y29210
X47498Y31750
X47498Y34290
X60198Y41910
X62738Y41910
X65278Y41910
X67818Y41910
X70358Y41910
X72898Y41910
X75438Y41910
X77978Y41910
X80518Y41910
X83058Y41910
X60198Y1270
X62738Y1270
X65278Y1270
X67818Y1270
X70358Y1270
X72898Y1270
X1270Y65278
X1270Y67818
X1270Y70358
X1270Y72898
X1270Y75438
X1270Y77978
X13970Y85598
X16510Y85598
X19050Y85598
X21590Y85598
X24130Y85598
X26670Y85598
X29210Y85598
X31750Y85598
X34290Y85598
X36830Y85598
X13970Y44958
X16510Y44958
X19050Y44958
X21590Y44958
X24130Y44958
X26670Y44958
X29210Y44958
X31750Y44958
X34290Y44958
X36830Y44958
X126746Y44958
X47498Y65278
X47498Y67818
X47498Y70358
X47498Y72898
X47498Y75438
X47498Y77978
X60198Y85598
X62738Y85598
X65278Y85598
X67818Y85598
X70358Y85598
X72898Y85598
X75438Y85598
X77978Y85598
X80518Y85598
X83058Y85598
X60198Y44958
X62738Y44958
X65278Y44958
X67818Y44958
X70358Y44958
X72898Y44958
X75438Y44958
X77978Y44958
X80518Y44958
X83058Y44958
X93726Y65278
X93726Y67818
X93726Y70358
X93726Y72898
X93726Y75438
X93726Y77978
X106426Y85598
X108966Y85598
X111506Y85598
X114046Y85598
X116586Y85598
X119126Y85598
X121666Y85598
X124206Y85598
X126746Y85598
X129286Y85598
X106426Y44958
X108966Y44958
X111506Y44958
X114046Y44958
T3
X103886Y29210
X121666Y12700
X29210Y12700
X11430Y29210
X57658Y29210
X29210Y56388
X75438Y56388
X57658Y72898
X11430Y72898
X75438Y12700
X121666Y56388
X103886Y72898
T4
X97361Y15590
X4905Y15590
X4905Y9810
X51133Y15590
X51133Y9810
X97361Y9810
X4905Y59278
X4905Y53498
X51133Y59278
X51133Y53498
X97361Y59278
X97361Y53498
T5
X1255Y60706
X1255Y52070
X5435Y52070
X5435Y60706
X47483Y60706
X51663Y52070
X93711Y52070
X97891Y52070
X97891Y60706
X47483Y52070
X97891Y17018
X51663Y60706
X97891Y8382
X93711Y8382
X93711Y17018
X51663Y17018
X51663Y8382
X47483Y8382
X47483Y17018
X5435Y17018
X5435Y8382
X1255Y8382
X1255Y17018
X93711Y60706
T6
X132461Y58547
X130683Y57658
X86233Y58547
X84455Y57658
X40005Y58547
X132461Y14859
X130683Y13970
X40005Y14859
X86233Y14859
X84455Y13970
X38227Y13970
X38227Y57658
T7
X66802Y13716
X69088Y15621
X69088Y21590
X70993Y15621
X78740Y19177
X79502Y17399
X79502Y15621
X53594Y3937
X48514Y11557
X53213Y15875
X66548Y2540
X53848Y1270
X57531Y4064
X60198Y7620
X88773Y14859
X55753Y13208
X55499Y15875
X58928Y39497
X61468Y39497
X57658Y36830
X61785Y36830
X69088Y39370
X69088Y36830
X74168Y39370
X74168Y32004
X76708Y35560
X81788Y39370
X81788Y36830
X79248Y35560
X67818Y25400
X66548Y22860
X64008Y25400
X64008Y22860
X64008Y20320
X64008Y17780
X61468Y20320
X52578Y22860
X56388Y30480
X62738Y26670
X62738Y30480
X62738Y33020
X52578Y27940
X52578Y30480
X52578Y35560
X56388Y41910
X53848Y41910
X67818Y33020
X66548Y36830
X81788Y20320
X83058Y20320
X84328Y12700
X79248Y3810
X76708Y3810
X74168Y3810
X71628Y3810
X69088Y2540
X71628Y6350
X74168Y6350
X76708Y10160
X69088Y5715
X79248Y8890
X79248Y12319
X52578Y33020
X76708Y6350
X79248Y39370
X76708Y32766
X79248Y6350
X56388Y1270
X81407Y3175
X64008Y39370
X66548Y39370
X71628Y39370
X71628Y36830
X76708Y39370
X79502Y14224
X66548Y20320
X62738Y14097
X52578Y24130
X81788Y34290
X80518Y33020
X79248Y31750
X81407Y29464
X82931Y32258
X84328Y39370
X84328Y36830
X79248Y29210
X71247Y32448
X58928Y30480
X59182Y37465
X66548Y33020
X63627Y7239
X66271Y9144
X56896Y9271
X53594Y39751
X61722Y5080
X66802Y5080
X71247Y34163
X58928Y32131
X58928Y34417
X64770Y28829
X66548Y31750
X71247Y35306
X69342Y34925
X53213Y15113
X53213Y10287
X66548Y10287
X74168Y13970
X78728Y18000
X51224Y12911
X53213Y12434
X78740Y16510
X48768Y10541
X50800Y5715
X48768Y14097
X47498Y18669
X78867Y14986
X68707Y33401
X50292Y24130
X57150Y27686
X49403Y24130
X55880Y27432
X54610Y39751
X61087Y5560
X66141Y5562
X69215Y33909
X60198Y29210
X61214Y33909
X71234Y23101
X74168Y35560
X77978Y12700
X80518Y10160
X83058Y10160
X71374Y28702
X86868Y38100
X87503Y33020
X59563Y27559
X58207Y13208
X59148Y14258
X86233Y8890
X99441Y25400
X98806Y25400
X105225Y13404
X100330Y17018
X101346Y3175
X119126Y30480
X114554Y29210
X113792Y14732
X107442Y27432
X119380Y27432
X117348Y24384
X121031Y24384
X124714Y27686
X122301Y24384
X123571Y24384
X126365Y24130
X129286Y24130
X129286Y22860
X129286Y21590
X130556Y21590
X131826Y21590
X133096Y21590
X117348Y26543
X117348Y25400
X121666Y26670
X123190Y26670
X124714Y26670
X127127Y23114
X128016Y26670
X128016Y28003
X129286Y26670
X129286Y27940
X129286Y29210
X130556Y29210
X131826Y29210
X133096Y29210
X102870Y35560
X102870Y39497
X99441Y9398
X93726Y6350
X115443Y11176
X117094Y11176
X110109Y15367
X111379Y16637
X112649Y17907
X115316Y19050
X111760Y12446
X113030Y13716
X115316Y15621
X115316Y21590
X117221Y15621
X124968Y19177
X125730Y17399
X125730Y15621
X99822Y3937
X94742Y11557
X99441Y15875
X112776Y2540
X100076Y1270
X103759Y4064
X106426Y7620
X135001Y14859
X101981Y13208
X101727Y15875
X105156Y39497
X107696Y39497
X103886Y36830
X108013Y36830
X115316Y39370
X115316Y36830
X120396Y39370
X120396Y32004
X122936Y35560
X128016Y39370
X128016Y36830
X125476Y35560
X114046Y25400
X112776Y22860
X110236Y25400
X110236Y22860
X110236Y20320
X110236Y17780
X107696Y20320
X98806Y22860
X102616Y30480
X108966Y26670
X108966Y30480
X108966Y33020
X98806Y27940
X98806Y30480
X98806Y35560
X102616Y41910
X100076Y41910
X114046Y33020
X112776Y36830
X128016Y20320
X129286Y20320
X130556Y12700
X125476Y3810
X122936Y3810
X120396Y3810
X117856Y3810
X115316Y2540
X117856Y6350
X120396Y6350
X122936Y10160
X115316Y5715
X125476Y8890
X125476Y12319
X98806Y33020
X122936Y6350
X125476Y39370
X122936Y32766
X125476Y6350
X102616Y1270
X127635Y3175
X110236Y39370
X112776Y39370
X117856Y39370
X117856Y36830
X122936Y39370
X125730Y14224
X112776Y20320
X108966Y14097
X98806Y24130
X128016Y34290
X126746Y33020
X125476Y31750
X127635Y29464
X129159Y32258
X130556Y39370
X130556Y36830
X125476Y29210
X117475Y32448
X105156Y30480
X105410Y37465
X112776Y33020
X109855Y7239
X112499Y9144
X103124Y9271
X99822Y39751
X107950Y5080
X113030Y5080
X117475Y34163
X105156Y32131
X105156Y34417
X110998Y28829
X112776Y31750
X117475Y35306
X115570Y34925
X99441Y15113
X99441Y10287
X112776Y10287
X120396Y13970
X124956Y18000
X97452Y12911
X99441Y12434
X124968Y16510
X94996Y10541
X97028Y5715
X94996Y14097
X93726Y18669
X125095Y14986
X114935Y33401
X96520Y24130
X103378Y27686
X95631Y24130
X102108Y27432
X100838Y39751
X107315Y5560
X112369Y5562
X115443Y33909
X106426Y29210
X107442Y33909
X117462Y23101
X120396Y35560
X124206Y12700
X126746Y10160
X129286Y10160
X117602Y28702
X133096Y38100
X133731Y33020
X105791Y27559
X104435Y13208
X105376Y14258
X132461Y8890
X6985Y69088
X6350Y69088
X12769Y57092
X7874Y60706
X8890Y46863
X26670Y74168
X22098Y72898
X21336Y58420
X14986Y71120
X26924Y71120
X24892Y68072
X28575Y68072
X32258Y71374
X29845Y68072
X31115Y68072
X33909Y67818
X36830Y67818
X36830Y66548
X36830Y65278
X38100Y65278
X39370Y65278
X40640Y65278
X24892Y70231
X24892Y69088
X29210Y70358
X30734Y70358
X32258Y70358
X34671Y66802
X35560Y70358
X35560Y71692
X36830Y70358
X36830Y71628
X36830Y72898
X38100Y72898
X39370Y72898
X40640Y72898
X10414Y79248
X10414Y83185
X6985Y53086
X1270Y50038
X22987Y54864
X24638Y54864
X17653Y59055
X18923Y60325
X20193Y61595
X22860Y62738
X19304Y56134
X20574Y57404
X22860Y59309
X22860Y65278
X24765Y59309
X32512Y62865
X33274Y61087
X33274Y59309
X7366Y47625
X2286Y55245
X6985Y59563
X20320Y46228
X7620Y44958
X11303Y47752
X13970Y51308
X42545Y58547
X9525Y56896
X9271Y59563
X12700Y83185
X15240Y83185
X11430Y80518
X15557Y80518
X22860Y83058
X22860Y80518
X27940Y83058
X27940Y75692
X30480Y79248
X35560Y83058
X35560Y80518
X33020Y79248
X21590Y69088
X20320Y66548
X17780Y69088
X17780Y66548
X17780Y64008
X17780Y61468
X15240Y64008
X6350Y66548
X10160Y74168
X16510Y70358
X16510Y74168
X16510Y76708
X6350Y71628
X6350Y74168
X6350Y79248
X10160Y85598
X7620Y85598
X21590Y76708
X20320Y80518
X35560Y64008
X36830Y64008
X38100Y56388
X33020Y47498
X30480Y47498
X27940Y47498
X25400Y47498
X22860Y46228
X25400Y50038
X27940Y50038
X30480Y53848
X22860Y49403
X33020Y52578
X33020Y56007
X6350Y76708
X30480Y50038
X33020Y83058
X30480Y76454
X9652Y27432
X10160Y44958
X35179Y46863
X17780Y83058
X20320Y83058
X25400Y83058
X25400Y80518
X30480Y83058
X33274Y57912
X20320Y64008
X16510Y57785
X6350Y67818
X35560Y77978
X34290Y76708
X33020Y75438
X35179Y73152
X36703Y75946
X38100Y83058
X38100Y80518
X33020Y72898
X25019Y76137
X12700Y74168
X12954Y81153
X20320Y76708
X17399Y50927
X20043Y52832
X10668Y52959
X7366Y83439
X15494Y48768
X20574Y48768
X25019Y77851
X12700Y75819
X12700Y78105
X18542Y72517
X20320Y75438
X25019Y78994
X23114Y78613
X6985Y58801
X6985Y53975
X20320Y53975
X27940Y57658
X32500Y61688
X4996Y56599
X6985Y56122
X32512Y60198
X6985Y25400
X2540Y54229
X4572Y49403
X2540Y57785
X1270Y62357
X32639Y58674
X22479Y77089
X4064Y67818
X10922Y71374
X3175Y67818
X9652Y71120
X8382Y83439
X14859Y49248
X19913Y49250
X22987Y77597
X13970Y72898
X14986Y77597
X25006Y66789
X27940Y79248
X31750Y56388
X34290Y53848
X36830Y53848
X25146Y72390
X40640Y81788
X41275Y76708
X13335Y71247
X11979Y56896
X12920Y57946
X40005Y52578
X53213Y69088
X52578Y69088
X6350Y25400
X58997Y57092
X54102Y60706
X55118Y46863
X72898Y74168
X68326Y72898
X67564Y58420
X61214Y71120
X73152Y71120
X71120Y68072
X74803Y68072
X78486Y71374
X76073Y68072
X77343Y68072
X80137Y67818
X83058Y67818
X83058Y66548
X83058Y65278
X84328Y65278
X85598Y65278
X86868Y65278
X71120Y70231
X71120Y69088
X75438Y70358
X76962Y70358
X78486Y70358
X80899Y66802
X81788Y70358
X81788Y71692
X83058Y70358
X83058Y71628
X83058Y72898
X84328Y72898
X85598Y72898
X86868Y72898
X56642Y79248
X56642Y83185
X53213Y53086
X47498Y50038
X69215Y54864
X70866Y54864
X63881Y59055
X65151Y60325
X66421Y61595
X69088Y62738
X65532Y56134
X66802Y57404
X69088Y59309
X69088Y65278
X70993Y59309
X78740Y62865
X79502Y61087
X79502Y59309
X53594Y47625
X48514Y55245
X53213Y59563
X66548Y46228
X53848Y44958
X57531Y47752
X60198Y51308
X88773Y58547
X55753Y56896
X55499Y59563
X58928Y83185
X61468Y83185
X57658Y80518
X61785Y80518
X69088Y83058
X69088Y80518
X74168Y83058
X74168Y75692
X76708Y79248
X81788Y83058
X81788Y80518
X79248Y79248
X67818Y69088
X66548Y66548
X64008Y69088
X64008Y66548
X64008Y64008
X64008Y61468
X61468Y64008
X52578Y66548
X56388Y74168
X62738Y70358
X62738Y74168
X62738Y76708
X52578Y71628
X52578Y74168
X52578Y79248
X56388Y85598
X53848Y85598
X67818Y76708
X66548Y80518
X81788Y64008
X83058Y64008
X84328Y56388
X79248Y47498
X76708Y47498
X74168Y47498
X71628Y47498
X69088Y46228
X71628Y50038
X74168Y50038
X76708Y53848
X69088Y49403
X79248Y52578
X79248Y56007
X52578Y76708
X76708Y50038
X79248Y83058
X76708Y76454
X79248Y50038
X56388Y44958
X81407Y46863
X64008Y83058
X66548Y83058
X71628Y83058
X71628Y80518
X76708Y83058
X79502Y57912
X66548Y64008
X62738Y57785
X52578Y67818
X81788Y77978
X80518Y76708
X79248Y75438
X81407Y73152
X82931Y75946
X84328Y83058
X84328Y80518
X79248Y72898
X71247Y76137
X58928Y74168
X59182Y81153
X66548Y76708
X63627Y50927
X66271Y52832
X56896Y52959
X53594Y83439
X61722Y48768
X66802Y48768
X71247Y77851
X58928Y75819
X58928Y78105
X64770Y72517
X66548Y75438
X71247Y78994
X69342Y78613
X53213Y58801
X53213Y53975
X66548Y53975
X74168Y57658
X78728Y61688
X51224Y56599
X53213Y56122
X78740Y60198
X12769Y13404
X48768Y54229
X50800Y49403
X48768Y57785
X47498Y62357
X78867Y58674
X68707Y77089
X50292Y67818
X57150Y71374
X49403Y67818
X55880Y71120
X54610Y83439
X61087Y49248
X66141Y49250
X69215Y77597
X60198Y72898
X61214Y77597
X71234Y66789
X74168Y79248
X77978Y56388
X80518Y53848
X83058Y53848
X71374Y72390
X86868Y81788
X87503Y76708
X59563Y71247
X58207Y56896
X59148Y57946
X86233Y52578
X99441Y69088
X98806Y69088
X7874Y17018
X105225Y57092
X100330Y60706
X101346Y46863
X119126Y74168
X114554Y72898
X113792Y58420
X107442Y71120
X119380Y71120
X117348Y68072
X121031Y68072
X124714Y71374
X122301Y68072
X123571Y68072
X126365Y67818
X129286Y67818
X129286Y66548
X129286Y65278
X130556Y65278
X131826Y65278
X133096Y65278
X117348Y70231
X117348Y69088
X121666Y70358
X123190Y70358
X124714Y70358
X127127Y66802
X128016Y70358
X128016Y71692
X129286Y70358
X129286Y71628
X129286Y72898
X130556Y72898
X131826Y72898
X133096Y72898
X102870Y79248
X102870Y83185
X99441Y53086
X93726Y50038
X115443Y54864
X117094Y54864
X110109Y59055
X111379Y60325
X112649Y61595
X115316Y62738
X111760Y56134
X113030Y57404
X115316Y59309
X115316Y65278
X117221Y59309
X124968Y62865
X125730Y61087
X125730Y59309
X99822Y47625
X94742Y55245
X99441Y59563
X112776Y46228
X100076Y44958
X103759Y47752
X106426Y51308
X135001Y58547
X101981Y56896
X101727Y59563
X105156Y83185
X107696Y83185
X103886Y80518
X108013Y80518
X115316Y83058
X115316Y80518
X120396Y83058
X120396Y75692
X122936Y79248
X128016Y83058
X128016Y80518
X125476Y79248
X8890Y3175
X112776Y66548
X110236Y69088
X110236Y66548
X110236Y64008
X110236Y61468
X107696Y64008
X98806Y66548
X102616Y74168
X108966Y70358
X108966Y74168
X108966Y76708
X98806Y71628
X98806Y74168
X98806Y79248
X102616Y85598
X100076Y85598
X114046Y76708
X112776Y80518
X128016Y64008
X129286Y64008
X130556Y56388
X125476Y47498
X122936Y47498
X120396Y47498
X117856Y47498
X115316Y46228
X117856Y50038
X120396Y50038
X122936Y53848
X115316Y49403
X125476Y52578
X125476Y56007
X98806Y76708
X122936Y50038
X125476Y83058
X122936Y76454
X125476Y50038
X102616Y44958
X127635Y46863
X110236Y83058
X112776Y83058
X117856Y83058
X117856Y80518
X122936Y83058
X125730Y57912
X112776Y64008
X108966Y57785
X98806Y67818
X128016Y77978
X126746Y76708
X125476Y75438
X127635Y73152
X129159Y75946
X130556Y83058
X130556Y80518
X125476Y72898
X117475Y76137
X105156Y74168
X105410Y81153
X112776Y76708
X109855Y50927
X112499Y52832
X103124Y52959
X99822Y83439
X107950Y48768
X113030Y48768
X117475Y77851
X105156Y75819
X105156Y78105
X110998Y72517
X112776Y75438
X117475Y78994
X115570Y78613
X99441Y58801
X99441Y53975
X112776Y53975
X120396Y57658
X124956Y61688
X97452Y56599
X99441Y56122
X124968Y60198
X26670Y30480
X94996Y54229
X97028Y49403
X94996Y57785
X93726Y62357
X125095Y58674
X114935Y77089
X96520Y67818
X103378Y71374
X95631Y67818
X102108Y71120
X100838Y83439
X107315Y49248
X112369Y49250
X115443Y77597
X106426Y72898
X107442Y77597
X117462Y66789
X120396Y79248
X124206Y56388
X126746Y53848
X129286Y53848
X117602Y72390
X133096Y81788
X133731Y76708
X105791Y71247
X104435Y56896
X105376Y57946
X132461Y52578
X22098Y29210
X21336Y14732
X14986Y27432
X26924Y27432
X24892Y24384
X28575Y24384
X32258Y27686
X29845Y24384
X31115Y24384
X33909Y24130
X36830Y24130
X36830Y22860
X36830Y21590
X38100Y21590
X39370Y21590
X40640Y21590
X24892Y26543
X24892Y25400
X29210Y26670
X30734Y26670
X32258Y26670
X34671Y23114
X35560Y26670
X35560Y28003
X36830Y26670
X36830Y27940
X36830Y29210
X38100Y29210
X39370Y29210
X40640Y29210
X10414Y35560
X10414Y39497
X6985Y9398
X1270Y6350
X22987Y11176
X24638Y11176
X17653Y15367
X18923Y16637
X20193Y17907
X22860Y19050
X19304Y12446
X20574Y13716
X22860Y15621
X22860Y21590
X24765Y15621
X32512Y19177
X33274Y17399
X33274Y15621
X7366Y3937
X2286Y11557
X6985Y15875
X20320Y2540
X7620Y1270
X11303Y4064
X13970Y7620
X42545Y14859
X9525Y13208
X9271Y15875
X33020Y50038
X12700Y39497
X15240Y39497
X11430Y36830
X15557Y36830
X22860Y39370
X22860Y36830
X27940Y39370
X27940Y32004
X30480Y35560
X35560Y39370
X35560Y36830
X33020Y35560
X21590Y25400
X20320Y22860
X17780Y25400
X17780Y22860
X17780Y20320
X17780Y17780
X15240Y20320
X6350Y22860
X10160Y30480
X16510Y26670
X16510Y30480
X16510Y33020
X6350Y27940
X6350Y30480
X6350Y35560
X10160Y41910
X7620Y41910
X21590Y33020
X20320Y36830
X35560Y20320
X36830Y20320
X38100Y12700
X33020Y3810
X30480Y3810
X27940Y3810
X25400Y3810
X22860Y2540
X25400Y6350
X27940Y6350
X30480Y10160
X22860Y5715
X33020Y8890
X33020Y12319
X6350Y33020
X30480Y6350
X33020Y39370
X30480Y32766
X33020Y6350
X10160Y1270
X35179Y3175
X17780Y39370
X20320Y39370
X25400Y39370
X25400Y36830
X30480Y39370
X33274Y14224
X20320Y20320
X16510Y14097
X6350Y24130
X35560Y34290
X34290Y33020
X33020Y31750
X35179Y29464
X36703Y32258
X38100Y39370
X38100Y36830
X33020Y29210
X25019Y32448
X12700Y30480
X12954Y37465
X20320Y33020
X17399Y7239
X20043Y9144
X10668Y9271
X7366Y39751
X15494Y5080
X20574Y5080
X25019Y34163
X12700Y32131
X12700Y34417
X18542Y28829
X20320Y31750
X25019Y35306
X23114Y34925
X6985Y15113
X6985Y10287
X20320Y10287
X27940Y13970
X32500Y18000
X4996Y12911
X6985Y12434
X32512Y16510
X2540Y10541
X4572Y5715
X2540Y14097
X1270Y18669
X32639Y14986
X22479Y33401
X4064Y24130
X10922Y27686
X3175Y24130
X8382Y39751
X14859Y5560
X19913Y5562
X22987Y33909
X13970Y29210
X14986Y33909
X25006Y23101
X27940Y35560
X31750Y12700
X34290Y10160
X36830Y10160
X25146Y28702
X40640Y38100
X41275Y33020
X13335Y27559
X11979Y13208
X12920Y14258
X40005Y8890
X53213Y25400
X52578Y25400
X58997Y13404
X54102Y17018
X55118Y3175
X72898Y30480
X68326Y29210
X67564Y14732
X61214Y27432
X73152Y27432
X71120Y24384
X74803Y24384
X78486Y27686
X76073Y24384
X77343Y24384
X80137Y24130
X83058Y24130
X83058Y22860
X83058Y21590
X84328Y21590
X85598Y21590
X86868Y21590
X71120Y26543
X71120Y25400
X75438Y26670
X76962Y26670
X78486Y26670
X80899Y23114
X81788Y26670
X81788Y28003
X83058Y26670
X83058Y27940
X83058Y29210
X84328Y29210
X85598Y29210
X86868Y29210
X56642Y35560
X56642Y39497
X53213Y9398
X47498Y6350
X69215Y11176
X70866Y11176
X63881Y15367
X65151Y16637
X66421Y17907
X69088Y19050
X65532Y12446
X114046Y69088
M30